<svg width="1420" height="674" viewBox="0 0 1420 674" fill="none" xmlns="http://www.w3.org/2000/svg">
<g clip-path="url(#clip0_102_1077)">
<g style="mix-blend-mode:soft-light" filter="url(#filter0_f_102_1077)">
<path d="M694.834 681.169C907.482 518.546 1023.38 396.173 1163.69 228.493L1277.18 83.4712C1297.14 57.9611 1288.45 20.5347 1259.29 6.43181C1238.15 -3.79241 1212.7 1.86814 1197.83 20.0436L1192.84 26.146C1043.09 209.174 944.583 329.578 795.574 461.512C787.482 468.678 775.816 459.728 780.632 450.05C839.235 332.288 898.64 229.633 978.669 95.546C993.875 70.0691 986.765 37.1396 962.352 20.2781C937.792 3.31536 904.256 8.53485 885.771 31.9697C757.032 195.18 659.218 303.562 527.788 415.868C519.818 422.677 508.724 414.322 513.275 404.879C547.426 334.015 592.42 264.204 659.583 175.038C677.743 150.929 676.9 117.349 657.105 94.5636C637.179 71.6263 603.697 66.0166 577.858 82.0025C535.394 108.274 498.92 132.982 466.16 155.675C421.795 186.406 386.252 211.984 350.474 234.173C293.699 269.386 238.334 294.771 157.779 308.07C128.794 312.856 107.112 338.401 109.718 367.662C112.327 396.958 138.275 418.815 167.341 414.324C266.977 398.931 337.016 367.629 406.156 324.748C409.155 322.888 412.157 321.002 415.163 319.094C424.092 313.424 435.365 323.791 430.512 333.189C398.29 395.597 374.125 457.938 352.296 531.027C343.79 559.51 355.415 590.206 379.927 607.022C404.596 623.945 437.599 623.542 461.399 605.419C525.642 556.5 581.525 510.901 632.942 465.127C641.229 457.749 654.281 467.431 649.56 477.473C631.356 516.2 612.85 557.197 593.521 601.712C581.517 629.354 589.781 661.562 613.412 680.264C637.199 699.09 670.737 699.597 694.834 681.169Z" fill="url(#paint0_linear_102_1077)"/>
</g>
</g>
<defs>
<filter id="filter0_f_102_1077" x="19.5052" y="-88.6223" width="1358.48" height="873.314" filterUnits="userSpaceOnUse" color-interpolation-filters="sRGB">
<feFlood flood-opacity="0" result="BackgroundImageFix"/>
<feBlend mode="normal" in="SourceGraphic" in2="BackgroundImageFix" result="shape"/>
<feGaussianBlur stdDeviation="45" result="effect1_foregroundBlur_102_1077"/>
</filter>
<linearGradient id="paint0_linear_102_1077" x1="1000.48" y1="128.456" x2="179.28" y2="473.2" gradientUnits="userSpaceOnUse">
<stop stop-color="#F9FAFF" stop-opacity="0"/>
<stop offset="0.214911" stop-color="#F9FAFF" stop-opacity="0.794049"/>
<stop offset="0.509615" stop-color="#F9FAFF" stop-opacity="0.5"/>
<stop offset="0.68166" stop-color="#F9FAFF" stop-opacity="0.71"/>
<stop offset="1" stop-color="#F9FAFF" stop-opacity="0"/>
</linearGradient>
<clipPath id="clip0_102_1077">
<rect width="1420" height="678" rx="10" fill="white"/>
</clipPath>
</defs>
</svg>
