<svg fill="none" height="674" viewBox="0 0 1420 674" width="1420" xmlns="http://www.w3.org/2000/svg" xmlns:xlink="http://www.w3.org/1999/xlink"><filter id="a" color-interpolation-filters="sRGB" filterUnits="userSpaceOnUse" height="873.314" width="1358.48" x="19.5052" y="-88.6223"><feFlood flood-opacity="0" result="BackgroundImageFix"/><feBlend in="SourceGraphic" in2="BackgroundImageFix" mode="normal" result="shape"/><feGaussianBlur result="effect1_foregroundBlur_102_1077" stdDeviation="45"/></filter><linearGradient id="b" gradientUnits="userSpaceOnUse" x1="1000.48" x2="179.28" y1="128.456" y2="473.2"><stop offset="0" stop-color="#f9faff" stop-opacity="0"/><stop offset=".214911" stop-color="#f9faff" stop-opacity=".794049"/><stop offset=".509615" stop-color="#f9faff" stop-opacity=".5"/><stop offset=".68166" stop-color="#f9faff" stop-opacity=".71"/><stop offset="1" stop-color="#f9faff" stop-opacity="0"/></linearGradient><clipPath id="c"><rect height="678" rx="10" width="1420"/></clipPath><g clip-path="url(#c)"><g filter="url(#a)"><path d="m694.834 681.169c212.648-162.623 328.546-284.996 468.856-452.676l113.49-145.0218c19.96-25.5101 11.27-62.9365-17.89-77.03939-21.14-10.22422-46.59-4.56367-61.46 13.61179l-4.99 6.1024c-149.75 183.028-248.257 303.432-397.266 435.366-8.092 7.166-19.758-1.784-14.942-11.462 58.603-117.762 118.008-220.417 198.037-354.504 15.206-25.4769 8.096-58.4064-16.317-75.2679-24.56-16.96274-58.096-11.74325-76.581 11.6916-128.739 163.2103-226.553 271.5923-357.983 383.8983-7.97 6.809-19.064-1.546-14.513-10.989 34.151-70.864 79.145-140.675 146.308-229.841 18.16-24.109 17.317-57.689-2.478-80.4744-19.926-22.9373-53.408-28.547-79.247-12.5611-42.464 26.2715-78.938 50.9795-111.698 73.6725-44.365 30.731-79.908 56.309-115.686 78.498-56.775 35.213-112.14 60.598-192.695 73.897-28.985 4.786-50.667 30.331-48.061 59.592 2.609 29.296 28.557 51.153 57.623 46.662 99.636-15.393 169.675-46.695 238.815-89.576 2.999-1.86 6.001-3.746 9.007-5.654 8.929-5.67 20.202 4.697 15.349 14.095-32.222 62.408-56.387 124.749-78.216 197.838-8.506 28.483 3.119 59.179 27.631 75.995 24.669 16.923 57.672 16.52 81.472-1.603 64.243-48.919 120.126-94.518 171.543-140.292 8.287-7.378 21.339 2.304 16.618 12.346-18.204 38.727-36.71 79.724-56.039 124.239-12.004 27.642-3.74 59.85 19.891 78.552 23.787 18.826 57.325 19.333 81.422.905z" fill="url(#b)"/></g></g></svg>