<svg fill="none" height="344" viewBox="0 0 344 344" width="344" xmlns="http://www.w3.org/2000/svg" xmlns:xlink="http://www.w3.org/1999/xlink"><linearGradient id="a"><stop offset="0" stop-color="#e1e6f2"/><stop offset="1" stop-color="#e1e6f2" stop-opacity="0"/></linearGradient><linearGradient id="b" gradientUnits="userSpaceOnUse" x1="172" x2="172" xlink:href="#a" y1="0" y2="344"/><linearGradient id="c" gradientUnits="userSpaceOnUse" x1="139.862" x2="139.862" xlink:href="#a" y1="86.6333" y2="324.123"/><clipPath id="d"><path d="m0 0h344v344h-344z" transform="matrix(-1 0 0 1 344 0)"/></clipPath><g clip-path="url(#d)" opacity=".3"><path d="m22.7899 134.489 19.1216-3.359c2.4005-7.676 5.4787-15.122 9.198-22.253l-11.1397-15.876c-7.6957-10.9469-6.3969-25.8437 3.0772-35.2936l14.667-14.6671c9.4499-9.4741 24.3468-10.7728 35.2936-3.0772l15.8834 11.1397c7.13-3.7193 14.577-6.7974 22.252-9.1979l3.36-19.1216c2.312-13.17144 13.75-22.77925016 27.123-22.78328141h20.748c13.383-.01545309 24.835 9.60445141 27.13 22.78998141l3.359 19.1149c7.676 2.3998 15.123 5.4779 22.253 9.1979l15.876-11.1397c10.947-7.6956 25.844-6.3969 35.294 3.0772l14.674 14.6738c9.474 9.4499 10.773 24.3467 3.077 35.2936l-11.133 15.8763c3.719 7.13 6.797 14.577 9.198 22.253l19.115 3.359c13.183 2.298 22.798 13.749 22.783 27.13v20.748c-.001 13.377-9.613 24.82-22.79 27.13l-19.115 3.359c-2.4 7.676-5.478 15.123-9.198 22.253l11.14 15.876c7.696 10.947 6.397 25.844-3.077 35.294l-14.674 14.674c-9.45 9.474-24.347 10.773-35.294 3.077l-15.876-11.133c-7.13 3.72-14.577 6.798-22.253 9.198l-3.359 19.121c-2.3 13.181-13.751 22.793-27.13 22.777h-20.748c-13.381.015-24.832-9.6-27.13-22.783-.835-4.752 2.34-9.28 7.092-10.115 4.751-.835 9.279 2.34 10.115 7.091.409 2.335 1.628 4.451 3.443 5.976s4.11 2.362 6.48 2.362h20.748c2.371.001 4.667-.834 6.484-2.36 1.816-1.525 3.037-3.642 3.446-5.978l4.293-24.476c.285-1.635 1.03-3.154 2.147-4.381 1.118-1.227 2.561-2.11 4.162-2.546 9.931-2.657 19.472-6.601 28.38-11.731 1.444-.836 3.097-1.242 4.764-1.168s3.278.624 4.642 1.585l20.325 14.257c1.941 1.361 4.3 1.993 6.662 1.787 2.362-.207 4.575-1.239 6.251-2.916l14.674-14.674c1.677-1.676 2.709-3.889 2.916-6.251.206-2.362-.427-4.721-1.787-6.662l-14.264-20.318c-.961-1.364-1.511-2.975-1.585-4.642s.332-3.32 1.168-4.764c5.134-8.911 9.082-18.454 11.745-28.387.43-1.607 1.311-3.058 2.538-4.181 1.227-1.124 2.75-1.874 4.389-2.161l24.469-4.293c2.331-.409 4.443-1.624 5.968-3.434 1.524-1.809 2.363-4.097 2.37-6.463v-20.748c-.001-2.37-.837-4.665-2.362-6.48s-3.641-3.034-5.976-3.443l-24.476-4.294c-1.634-.286-3.153-1.033-4.379-2.151-1.225-1.118-2.107-2.563-2.541-4.164-2.661-9.933-6.607-19.476-11.738-28.387-.837-1.444-1.242-3.097-1.168-4.764s.624-3.278 1.584-4.642l14.258-20.3177c1.36-1.9414 1.993-4.3004 1.787-6.6623-.207-2.3618-1.239-4.5753-2.916-6.2511l-14.674-14.6738c-1.676-1.677-3.889-2.7095-6.251-2.9159-2.362-.2065-4.721.4263-6.662 1.7872l-20.318 14.2639c-1.364.9608-2.975 1.5106-4.642 1.5845-1.667.0738-3.32-.3315-4.764-1.168-8.911-5.1324-18.454-9.0784-28.387-11.7376-1.607-.4306-3.058-1.3113-4.181-2.5385-1.124-1.2272-1.874-2.7497-2.161-4.3886l-4.294-24.4764c-.408-2.3304-1.623-4.4428-3.433-5.9672-1.809-1.5244-4.097-2.3637-6.463-2.3707h-20.748c-2.372-.0009-4.668.8348-6.484 2.3599s-3.037 3.6419-3.446 5.978l-4.293 24.4764c-.285 1.6347-1.03 3.1543-2.147 4.3811-1.118 1.2267-2.561 2.1099-4.162 2.546-9.931 2.6613-19.471 6.6072-28.38 11.7376-1.444.8365-3.097 1.2418-4.764 1.168-1.667-.0739-3.278-.6237-4.643-1.5845l-20.3238-14.2572c-1.9414-1.3608-4.3004-1.9937-6.6622-1.7872-2.3619.2064-4.5753 1.2389-6.2512 2.9159l-14.6737 14.6738c-1.677 1.6759-2.7096 3.8893-2.916 6.2512-.2065 2.3618.4264 4.7208 1.7872 6.6622l14.2639 20.318c.9608 1.364 1.5107 2.975 1.5845 4.642s-.3315 3.32-1.1679 4.764c-5.13 8.909-9.0758 18.45-11.7377 28.38-.4317 1.606-1.3129 3.055-2.54 4.177-1.227 1.123-2.749 1.871-4.387 2.159l-24.4764 4.293c-2.3316.409-4.4449 1.625-5.9695 3.436-1.5245 1.811-2.363 4.1-2.3685 6.467v20.748c-.0008 2.372.8348 4.668 2.3599 6.484s3.642 3.037 5.9781 3.446c4.7515.835 7.9268 5.364 7.0916 10.115-.8351 4.752-5.3636 7.927-10.1151 7.092-13.18484-2.299-22.8020293-13.753-22.78323052-27.137v-20.748c-.00201416-13.379 9.61118052-24.826 22.78993052-27.137z" fill="url(#b)"/><path d="m24.814 263.059 55.8732-57.573c3.61-3.7 6.3749-8.139 8.1043-13.011 1.7294-4.871 2.3822-10.06 1.9133-15.208-4.0097-45.871 29.9242-86.307 75.7952-90.3167 4.871-.426 9.769-.4226 14.639.0101 3.816.3103 7.402 1.9511 10.132 4.6359 6.642 6.532 6.744 17.2067.229 23.8647l-24.074 24.544c-4.892 4.983-4.819 12.989.164 17.881l.004.004 18.638 18.282c4.986 4.888 12.989 4.809 17.879-.175l24.073-24.543c6.532-6.642 17.207-6.744 23.865-.229 2.741 2.677 4.453 6.233 4.837 10.045 4.953 45.778-28.142 86.904-73.921 91.857-4.863.526-9.764.624-14.645.29-5.146-.369-10.31.38-15.138 2.197-4.828 1.816-9.206 4.656-12.832 8.325l-55.8399 57.533c-3.36 3.462-8.8902 3.544-12.3524.184s-3.5448-8.89-.1847-12.352l55.873-57.566c5.394-5.479 11.91-9.725 19.101-12.444 7.191-2.72 14.886-3.85 22.555-3.312 36.313 2.489 67.768-24.931 70.256-61.244.229-3.344.203-6.701-.078-10.042l-23.086 23.516c-2.763 2.832-6.061 5.088-9.702 6.637-3.64 1.548-7.552 2.36-11.509 2.386h-.296c-7.881.024-15.453-3.064-21.07-8.593l-18.637-18.282c-11.873-11.646-12.056-30.711-.41-42.583l23.085-23.516c-36.32-2.372-67.687 25.148-70.06 61.468-.218 3.347-.182 6.705.111 10.047.687 7.648-.29 15.355-2.865 22.59s-6.6859 13.826-12.0509 19.321l-55.8395 57.539c-3.3601 3.463-8.8903 3.545-12.3524.185-3.4615-3.36-3.5442-8.89-.1842-12.352z" fill="url(#c)"/></g></svg>