<svg width="133" height="22" viewBox="0 0 133 22" fill="none" xmlns="http://www.w3.org/2000/svg">
<g clip-path="url(#clip0_102_2445)">
<mask id="mask0_102_2445" style="mask-type:luminance" maskUnits="userSpaceOnUse" x="0" y="0" width="133" height="22">
<path d="M132.636 0H0.458618V21.9069H132.636V0Z" fill="white"/>
</mask>
<g mask="url(#mask0_102_2445)">
<path d="M3.62346 5.47949H9.95005L6.78521 10.9555L9.95005 16.4314H3.62346L0.458618 10.9555L3.62346 5.47949Z" fill="#171E4F"/>
<path d="M6.78479 0H13.1144L19.4411 10.955L13.1144 21.9069H6.78479L13.1144 10.955L6.78479 0Z" fill="#171E4F"/>
<path d="M16.2792 5.47559L19.4411 10.9547H13.1144L16.2792 5.47559Z" fill="#171E4F"/>
<path d="M13.1142 10.9547L9.94983 5.47559H16.2791L13.1142 10.9547Z" fill="#171E4F"/>
<path d="M3.62346 5.47559L6.78521 10.9548H0.458618L3.62346 5.47559Z" fill="#171E4F"/>
<path d="M13.1144 10.9551L16.2797 16.431L9.95004 16.4311L13.1144 10.9551Z" fill="#171E4F"/>
<path d="M6.78521 10.9551L9.95005 16.431H3.62346L6.78521 10.9551Z" fill="#171E4F"/>
<path d="M13.1144 0L9.95004 5.4759H16.2793L13.1144 0Z" fill="#171E4F"/>
<path d="M9.95005 5.4759L6.78479 0H13.1144L9.95005 5.4759Z" fill="#171E4F"/>
<path d="M16.2797 16.431L19.4411 10.9551H13.1144L16.2797 16.431Z" fill="#171E4F"/>
<path d="M6.78541 10.9555L9.95025 5.47949H3.62366L6.78541 10.9555Z" fill="#171E4F"/>
<path d="M3.62346 16.431L6.78521 10.9551H0.458618L3.62346 16.431Z" fill="#171E4F"/>
<path d="M13.1144 21.9066L9.95004 16.4308L16.2797 16.4307L13.1144 21.9066Z" fill="#171E4F"/>
<path d="M9.95005 16.4307L6.78479 21.9066H13.1144L9.95005 16.4307Z" fill="#171E4F"/>
<path d="M127.187 16.462H126.444V15.2107H127.064C127.779 15.2107 128.082 15.1557 128.412 14.1932L128.495 14.0145L125.812 6.6582H127.6L129.279 11.9657L130.957 6.6582H132.636L130.035 14.042C129.334 15.9532 128.852 16.462 127.187 16.462Z" fill="#171E4F"/>
<path d="M122.225 6.49316C123.849 6.49316 125.252 7.55191 125.541 9.18819H123.945C123.794 8.40441 123.119 7.85441 122.225 7.85441C121.193 7.85441 120.285 8.61066 120.285 10.3569C120.285 12.1169 121.221 12.8732 122.184 12.8732C122.996 12.8732 123.78 12.5157 124 11.5257H125.596C125.266 13.2582 123.739 14.2344 122.156 14.2344C120.01 14.2344 118.593 12.5707 118.593 10.3707C118.593 8.17066 120.01 6.49316 122.225 6.49316Z" fill="#171E4F"/>
<path d="M112.637 6.65816V7.68941C113.064 6.91941 113.834 6.49316 114.88 6.49316C116.669 6.49316 117.398 7.64816 117.398 9.40819V14.0557H115.76V9.80694C115.76 8.80316 115.623 7.82691 114.357 7.82691C113.091 7.82691 112.637 8.78941 112.637 10.1232V14.0557H111V6.65816H112.637Z" fill="#171E4F"/>
<path d="M109.652 10.8244H104.134C104.244 12.1994 105.208 12.8732 106.143 12.8732C107.01 12.8732 107.67 12.5432 107.959 11.8419H109.569C109.239 13.0244 108.111 14.2344 106.212 14.2344C103.832 14.2344 102.47 12.4332 102.47 10.3019C102.47 8.07441 103.997 6.49316 106.102 6.49316C108.372 6.49316 109.803 8.34941 109.652 10.8244ZM106.102 7.77191C105.331 7.77191 104.286 8.23941 104.134 9.62819H107.987C107.946 8.47316 107.065 7.77191 106.102 7.77191Z" fill="#171E4F"/>
<path d="M99.4932 7.64816V6.65816H101.13V13.3132C101.13 14.5094 100.828 15.3757 100.236 15.9257C99.6445 16.4757 98.764 16.7232 97.6082 16.7232C95.9847 16.7232 94.7052 16.0769 94.4437 14.4544H96.0673C96.2186 15.1557 96.6589 15.4307 97.6495 15.4307C98.3787 15.4307 98.8465 15.2244 99.1217 14.8944C99.3969 14.5782 99.4932 14.1244 99.4932 13.6432V12.7769C99.0529 13.5057 98.2824 13.9319 97.2918 13.9319C95.5307 13.9319 94.0723 12.5157 94.0723 10.2057C94.0723 7.89566 95.5307 6.49316 97.2918 6.49316C98.2824 6.49316 99.0529 6.91941 99.4932 7.64816ZM99.562 10.2057C99.562 8.55566 98.7089 7.79941 97.6495 7.79941C96.5488 7.79941 95.7783 8.72066 95.7783 10.2057C95.7783 11.7319 96.5488 12.6394 97.6495 12.6394C98.7089 12.6394 99.562 11.8694 99.562 10.2057Z" fill="#171E4F"/>
<path d="M91.3294 11.141V10.5773C88.9904 10.7973 88.0411 11.141 88.0411 11.9798C88.0411 12.626 88.5776 13.011 89.4032 13.011C90.6139 13.011 91.3294 12.406 91.3294 11.141ZM89.0454 14.2348C87.4357 14.2348 86.3075 13.3685 86.3075 12.021C86.3075 10.1648 88.5914 9.72475 91.2881 9.436V9.2985C91.2881 8.03348 90.5726 7.64848 89.7471 7.64848C88.9216 7.64848 88.3025 8.08848 88.2612 8.98223H86.6514C86.7615 7.48348 88.0135 6.43848 89.8022 6.43848C91.577 6.43848 92.967 7.24973 92.9257 9.61475C92.9257 9.97225 92.8982 10.8523 92.8982 11.526C92.8982 12.461 92.967 13.4373 93.1183 14.056H91.6183C91.5633 13.7398 91.522 13.561 91.4807 13.0523C90.9992 13.8635 90.1461 14.2348 89.0454 14.2348Z" fill="#171E4F"/>
<path d="M85.1071 14.0555H83.236V12.1855H85.1071V14.0555Z" fill="#171E4F"/>
<path d="M78.307 16.462H77.564V15.2107H78.1832C78.8986 15.2107 79.2013 15.1557 79.5315 14.1932L79.6141 14.0145L76.9311 6.6582H78.7198L80.3983 11.9657L82.0769 6.6582H83.7554L81.155 14.042C80.4533 15.9532 79.9718 16.462 78.307 16.462Z" fill="#171E4F"/>
<path d="M70.4228 4.08691H72.06V9.62819L74.798 6.65816H76.7655L73.9312 9.69694L77.0819 14.0557H75.1695L72.8443 10.8519L72.06 11.6907V14.0557H70.4228V4.08691Z" fill="#171E4F"/>
<path d="M68.9455 8.67941H67.4046C67.2257 8.00566 66.6066 7.74441 65.7811 7.74441C65.0656 7.74441 64.4052 8.06066 64.4052 8.55566C64.4052 9.05066 64.7492 9.31194 65.3958 9.43569L66.4415 9.64194C67.9412 9.93069 69.0831 10.3982 69.0831 11.8419C69.0831 13.3819 67.6247 14.2344 65.9462 14.2344C64.13 14.2344 62.9193 13.1894 62.7404 11.8007H64.3364C64.4877 12.5707 65.0243 12.9969 66.0012 12.9969C66.868 12.9969 67.4871 12.6394 67.4871 12.0344C67.4871 11.4294 66.9368 11.1682 66.2076 11.0169L65.0931 10.7969C63.8411 10.5357 62.8642 9.99944 62.8642 8.63816C62.8642 7.33191 64.2814 6.49316 65.8774 6.49316C67.322 6.49316 68.6428 7.19441 68.9455 8.67941Z" fill="#171E4F"/>
<path d="M59.061 6.65816V6.20441C59.061 4.48566 59.7076 4.08691 61.51 4.08691H62.1567V5.33816H61.6889C60.8771 5.33816 60.6983 5.48941 60.6983 6.25941V6.65816H62.1567V7.84066H60.6983V14.0557H59.061V7.84066H58.0291V6.65816H59.061Z" fill="#171E4F"/>
<path d="M54.6136 6.65816V6.20441C54.6136 4.48566 55.2602 4.08691 57.0626 4.08691H57.7093V5.33816H57.2415C56.4297 5.33816 56.2508 5.48941 56.2508 6.25941V6.65816H57.7093V7.84066H56.2508V14.0557H54.6136V7.84066H53.5817V6.65816H54.6136Z" fill="#171E4F"/>
<path d="M47.3809 10.3707C47.3809 12.0757 48.289 12.9007 49.3346 12.9007C50.3803 12.9007 51.2884 12.0757 51.2884 10.3707C51.2884 8.66566 50.3803 7.82691 49.3346 7.82691C48.289 7.82691 47.3809 8.66566 47.3809 10.3707ZM49.3346 6.49316C51.137 6.49316 52.9807 7.70316 52.9807 10.3707C52.9807 13.0519 51.137 14.2344 49.3346 14.2344C47.5323 14.2344 45.6886 13.0519 45.6886 10.3707C45.6886 7.70316 47.5323 6.49316 49.3346 6.49316Z" fill="#171E4F"/>
<path d="M42.6982 7.64816V4.08691H44.3355V14.0557H42.6982V13.0794C42.2579 13.8082 41.4875 14.2344 40.4968 14.2344C38.7357 14.2344 37.2773 12.7357 37.2773 10.3569C37.2773 7.99191 38.7357 6.49316 40.4968 6.49316C41.4875 6.49316 42.2579 6.91941 42.6982 7.64816ZM42.767 10.3569C42.767 8.65191 41.914 7.82691 40.8546 7.82691C39.7539 7.82691 38.9834 8.81691 38.9834 10.3569C38.9834 11.9382 39.7539 12.9007 40.8546 12.9007C41.914 12.9007 42.767 12.0619 42.767 10.3569Z" fill="#171E4F"/>
<path d="M36.3576 10.8244H30.8404C30.9505 12.1994 31.9136 12.8732 32.8492 12.8732C33.716 12.8732 34.3764 12.5432 34.6653 11.8419H36.2751C35.9449 13.0244 34.8166 14.2344 32.918 14.2344C30.5377 14.2344 29.1756 12.4332 29.1756 10.3019C29.1756 8.07441 30.7028 6.49316 32.8079 6.49316C35.0781 6.49316 36.509 8.34941 36.3576 10.8244ZM32.8079 7.77191C32.0374 7.77191 30.9918 8.23941 30.8404 9.62819H34.6928C34.6515 8.47316 33.771 7.77191 32.8079 7.77191Z" fill="#171E4F"/>
<path d="M27.8283 4.08691V14.0557H26.191V4.08691H27.8283Z" fill="#171E4F"/>
</g>
</g>
<defs>
<clipPath id="clip0_102_2445">
<rect width="133" height="22" fill="white"/>
</clipPath>
</defs>
</svg>
