<svg width="64" height="64" viewBox="0 0 64 64" fill="none" xmlns="http://www.w3.org/2000/svg">
<rect width="64" height="64" rx="12" fill="white"/>
<path d="M26.5182 41.555C26.5009 41.7274 26.5158 41.9073 26.5786 42.0857C26.732 42.5158 27.092 42.8661 27.5184 42.9982C27.9147 43.1234 28.3089 43.0401 28.4285 42.91L29.2552 42.0229C29.4943 41.7672 29.5547 41.3585 29.4142 40.9619C29.0683 40.2991 28.6048 40.0599 28.0113 39.9528L26.5182 41.555ZM25.4125 37.1196L23.9677 38.6691C23.6742 38.9884 23.59 39.4793 23.7539 39.9496C23.9279 40.4465 24.343 40.8507 24.8399 41.0017C25.3102 41.1427 25.7821 41.0332 26.0777 40.7187L27.4154 39.284C27.7109 38.9655 27.7931 38.477 27.6292 38.0067C27.4552 37.5074 27.0377 37.1047 26.5432 36.9545C26.1486 36.8285 25.6855 36.8237 25.4125 37.1196ZM22.5483 34.5699L21.2143 36.0022C20.9203 36.3191 20.8382 36.8116 21.0005 37.2835C21.1744 37.7788 21.5896 38.1831 22.0865 38.3341C22.556 38.477 23.0327 38.3655 23.1813 38.208L24.6623 36.6187C24.9579 36.2994 25.04 35.8085 24.8761 35.339C24.7014 34.8405 24.2862 34.4379 23.7893 34.2885C23.3323 34.1395 22.8266 34.272 22.5483 34.5699ZM19.9386 31.7464L18.46 33.3366C18.1645 33.6551 18.0823 34.1435 18.2462 34.6114C18.4186 35.1123 18.8361 35.515 19.333 35.666C19.8025 35.8061 20.2785 35.6974 20.4254 35.5379L21.9081 33.9486V33.947C22.2036 33.6325 22.2858 33.1433 22.1219 32.6738C21.9504 32.1728 21.5328 31.7702 21.0359 31.6208C20.6562 31.4899 20.1967 31.4674 19.9386 31.7464ZM39.1346 22.2632C38.1783 22.7979 36.8491 22.8938 35.5545 22.9868C34.5752 23.0536 33.5649 23.1245 32.8389 23.3927L28.8022 24.8821C28.7751 24.8926 28.7468 24.8998 28.718 24.9035C28.5231 24.9341 28.3427 24.9603 28.1808 24.9828C27.1979 25.1213 27.0844 25.1636 26.9712 25.4547C26.8681 25.7237 26.9813 26.1115 27.2607 26.4409C27.4887 26.7115 28.3806 27.5563 30.2155 27.1218L32.5144 26.8182C33.8017 26.6523 34.8337 27.4914 35.658 28.1687L41.8401 33.1143L41.845 33.1119C43.0671 32.6005 44.3403 31.9353 45.4227 30.6314L39.1346 22.2632Z" fill="#1C4AD1"/>
<path d="M30.6291 21.9629C30.2627 21.9967 29.8427 22.043 29.4022 22.0889C26.9656 22.349 25.6147 22.4513 24.9273 22.324L18.6018 30.5574C18.8243 30.764 19.0195 30.9981 19.1829 31.254C19.7116 30.7128 20.5105 30.5195 21.2884 30.7547C22.0519 30.985 22.6893 31.6039 22.9559 32.3718C23.069 32.6968 23.1045 33.0302 23.0755 33.3495C23.3991 33.303 23.729 33.328 24.0419 33.4228C24.8033 33.6515 25.4432 34.272 25.7077 35.0399C25.8225 35.3632 25.8587 35.6958 25.8313 36.0152C26.1551 35.9685 26.4852 35.9944 26.7977 36.0909C27.5576 36.3212 28.1946 36.9401 28.4611 37.704C28.6287 38.1884 28.6351 38.6869 28.499 39.1338C28.5767 39.1487 28.6564 39.1677 28.7358 39.1926C29.4175 39.404 29.9965 39.9641 30.2458 40.6547C30.4833 41.3231 30.3803 42.0254 29.9901 42.5295L31.1123 43.4271C31.3869 43.6449 31.7872 43.6687 32.1609 43.4875C32.5659 43.291 32.872 42.8919 32.9622 42.4454C32.997 42.2681 32.9911 42.0853 32.9449 41.9106L31.5214 40.7719C31.4293 40.6967 31.3699 40.5887 31.3558 40.4707C31.3417 40.3526 31.3739 40.2337 31.4457 40.1389C31.481 40.0925 31.5251 40.0536 31.5756 40.0245C31.626 39.9954 31.6818 39.9767 31.7396 39.9695C31.7974 39.9622 31.8561 39.9666 31.9122 39.9824C31.9683 39.9981 32.0207 40.0249 32.0662 40.0612L33.7776 41.4327C33.9475 41.5688 34.4343 41.605 34.8809 41.3948C35.3504 41.1705 35.7051 40.7083 35.8034 40.1924C35.8976 39.7048 35.7466 39.2321 35.4108 38.9615L33.8629 37.7229C33.7702 37.6485 33.7103 37.5407 33.6962 37.4226C33.682 37.3046 33.7147 37.1857 33.7872 37.0915C33.8219 37.0446 33.8658 37.0053 33.9161 36.9759C33.9664 36.9465 34.0222 36.9275 34.0801 36.9203C34.1379 36.913 34.1966 36.9175 34.2527 36.9336C34.3087 36.9497 34.3609 36.977 34.4061 37.0138L36.6563 38.8133C36.9945 39.0823 37.4805 39.1193 37.9295 38.9099C38.395 38.6873 38.7497 38.2258 38.8504 37.7044C38.9446 37.2167 38.7936 36.7456 38.4542 36.4726L36.2033 34.6755C36.1104 34.6001 36.0505 34.4915 36.0364 34.3727C36.0222 34.2539 36.0549 34.1343 36.1275 34.0393C36.1631 33.9932 36.2075 33.9546 36.2582 33.9258C36.3088 33.897 36.3647 33.8786 36.4225 33.8716C36.4803 33.8647 36.539 33.8693 36.595 33.8852C36.651 33.9011 36.7033 33.928 36.7489 33.9644C36.7489 33.9644 40.1667 36.6973 40.1691 36.6973C40.3391 36.831 40.8235 36.8688 41.268 36.6562C41.7383 36.4368 42.0907 35.9753 42.1929 35.4555C42.2856 34.967 42.1346 34.4927 41.7967 34.2245L35.1072 28.871C34.3397 28.2417 33.5468 27.5897 32.6259 27.7134L30.3734 28.0073C28.855 28.3721 27.4227 28.0113 26.5944 27.032C26.0951 26.4421 25.9251 25.7125 26.1494 25.1258C26.4639 24.312 27.0663 24.2279 28.0605 24.0877C28.2091 24.0688 28.3689 24.0455 28.5449 24.0177L32.5402 22.5439C32.7999 22.4473 33.0874 22.3804 33.385 22.3212C32.3578 21.9238 31.6132 21.9 30.6291 21.9629ZM21.9468 20.4025C21.2192 20.3473 20.5548 20.8958 19.5984 22.1412L17.1526 25.3271C16.268 26.4764 15.9366 27.1911 16.0098 27.7967C16.0686 28.2944 16.4149 28.7828 16.7584 29.0583L17.9185 29.9848L24.2182 21.7853L23.4028 21.1325C22.8423 20.6856 22.3833 20.4363 21.9468 20.4025ZM42.1478 20.3941C41.7113 20.4214 41.2483 20.6655 40.6833 21.106L39.8591 21.7454L46.0714 30.0118L46.8744 29.3872C47.569 28.8485 47.9233 28.3665 47.9881 27.8692C48.0683 27.2652 47.7473 26.5448 46.8768 25.3807L44.4708 22.1642C43.5334 20.9058 42.8775 20.3473 42.1478 20.3941Z" fill="#1C4AD1"/>
</svg>
