<svg width="64" height="64" viewBox="0 0 64 64" fill="none" xmlns="http://www.w3.org/2000/svg">
<rect width="64" height="64" rx="12" fill="white"/>
<path d="M47.3879 31.1553L42.7969 29.8434C40.7295 29.2605 38.8463 28.1569 37.3274 26.638C35.8085 25.1191 34.7049 23.2359 34.122 21.1685L32.8101 16.5775C32.7441 16.4169 32.6318 16.2795 32.4876 16.1829C32.3434 16.0862 32.1736 16.0345 32 16.0345C31.8264 16.0345 31.6566 16.0862 31.5124 16.1829C31.3682 16.2795 31.2559 16.4169 31.1899 16.5775L29.878 21.1685C29.2951 23.2359 28.1915 25.1191 26.6726 26.638C25.1537 28.1569 23.2705 29.2605 21.2031 29.8434L16.6121 31.1553C16.4359 31.2054 16.2807 31.3115 16.1702 31.4577C16.0598 31.6039 16 31.7822 16 31.9654C16 32.1486 16.0598 32.3269 16.1702 32.4731C16.2807 32.6193 16.4359 32.7254 16.6121 32.7755L21.2031 34.0874C23.2705 34.6703 25.1537 35.7739 26.6726 37.2928C28.1915 38.8117 29.2951 40.6949 29.878 42.7623L31.1899 47.3533C31.24 47.5295 31.3461 47.6847 31.4923 47.7952C31.6385 47.9056 31.8168 47.9654 32 47.9654C32.1832 47.9654 32.3615 47.9056 32.5077 47.7952C32.6539 47.6847 32.76 47.5295 32.8101 47.3533L34.122 42.7623C34.7049 40.6949 35.8085 38.8117 37.3274 37.2928C38.8463 35.7739 40.7295 34.6703 42.7969 34.0874L47.3879 32.7755C47.5641 32.7254 47.7193 32.6193 47.8298 32.4731C47.9402 32.3269 48 32.1486 48 31.9654C48 31.7822 47.9402 31.6039 47.8298 31.4577C47.7193 31.3115 47.5641 31.2054 47.3879 31.1553Z" fill="#1C4AD1"/>
</svg>
