<svg width="64" height="64" viewBox="0 0 64 64" fill="none" xmlns="http://www.w3.org/2000/svg">
<rect width="64" height="64" rx="12" fill="white"/>
<path d="M16.4362 32.0415C16.0922 32.1682 15.9149 32.5495 16.0402 32.8948L16.4589 34.0467L19.6467 30.8588L16.4362 32.0415ZM19.4534 42.2811L21.3733 47.5609C21.4031 47.6434 21.4489 47.7191 21.5082 47.7836C21.5675 47.8482 21.639 47.9003 21.7186 47.9369C21.8068 47.978 21.9027 47.9994 21.9999 47.9996C22.0786 47.9996 22.1559 47.9863 22.2306 47.9583L24.3492 47.177L19.4534 42.2811ZM47.9591 37.7733L45.7619 31.7322L40.4887 37.0053L43.102 36.0427C43.4446 35.912 43.8312 36.0907 43.9579 36.4373C44.0859 36.7826 43.9086 37.1666 43.5633 37.2933L40.2434 38.5173C40.1695 38.5446 40.0914 38.5586 40.0127 38.5586C39.742 38.5586 39.486 38.3919 39.3874 38.1226C39.3861 38.1186 39.3874 38.1146 39.3861 38.1106L33.7983 43.6984L47.5631 38.6266C47.9084 38.4999 48.0857 38.1186 47.9591 37.7733ZM47.8044 26.8617L37.1381 16.1954C36.8781 15.9354 36.4554 15.9354 36.1954 16.1954L16.1961 36.1947C15.9362 36.4546 15.9362 36.8773 16.1961 37.1373L26.8625 47.8036C26.924 47.8659 26.9973 47.9153 27.0781 47.9489C27.1589 47.9826 27.2456 47.9998 27.3331 47.9996C27.5038 47.9996 27.6744 47.9343 27.8051 47.8049L47.8044 27.8056C47.9293 27.6803 47.9994 27.5106 47.9994 27.3337C47.9994 27.1567 47.9293 26.987 47.8044 26.8617ZM23.8053 34.4721L21.1387 37.1386C21.0132 37.2633 20.8435 37.3332 20.6667 37.3332C20.4898 37.3332 20.3202 37.2633 20.1947 37.1386C19.9347 36.8786 19.9347 36.456 20.1947 36.196L22.8613 33.5294C23.1213 33.2694 23.544 33.2694 23.8039 33.5294C24.0639 33.7894 24.0652 34.2107 23.8053 34.4721ZM35.3182 35.3187C34.8462 35.7907 34.2049 36.0173 33.4915 36.0173C32.3129 36.0173 30.9356 35.4001 29.7837 34.2467C28.941 33.4041 28.349 32.3961 28.1184 31.4095C27.8624 30.3096 28.0731 29.3523 28.7117 28.7123C29.3504 28.0723 30.3077 27.8616 31.4089 28.119C32.3956 28.3497 33.4035 28.9403 34.2461 29.7843C36.0981 31.6348 36.5701 34.0667 35.3182 35.3187ZM43.8046 27.8056L41.138 30.4722C41.0125 30.5969 40.8428 30.6668 40.666 30.6668C40.4891 30.6668 40.3195 30.5969 40.194 30.4722C39.934 30.2122 39.934 29.7896 40.194 29.5296L42.8606 26.863C43.1206 26.603 43.5433 26.603 43.8032 26.863C44.0632 27.123 44.0645 27.5443 43.8046 27.8056Z" fill="#1C4AD1"/>
</svg>
