<svg width="32" height="32" viewBox="0 0 32 32" fill="none" xmlns="http://www.w3.org/2000/svg">
<g clip-path="url(#clip0_659_1924)">
<path d="M16.9412 0H29.1765C29.6963 0 30.1177 0.421375 30.1177 0.941188V28.2353H16.9412V0ZM22.3933 9.68744L19.5698 12.5109C19.2023 12.8785 19.2023 13.4744 19.5698 13.8419C19.9374 14.2095 20.5333 14.2095 20.9008 13.8419L23.7243 11.0184C24.0919 10.6509 24.0919 10.055 23.7243 9.68744C23.3568 9.31987 22.7609 9.31987 22.3933 9.68744ZM26.158 11.5698L19.5697 18.1581C19.2022 18.5256 19.2022 19.1215 19.5697 19.4891C19.9373 19.8566 20.5332 19.8566 20.9007 19.4891L27.489 12.9008C27.8566 12.5332 27.8566 11.9374 27.489 11.5698C27.1215 11.2023 26.5256 11.2023 26.158 11.5698ZM2.8235 0H15.0588V28.2353H1.88238V0.941188C1.88238 0.421375 2.30375 0 2.8235 0ZM7.3345 9.68744L4.511 12.5109C4.14344 12.8785 4.14344 13.4744 4.511 13.8419C4.87856 14.2095 5.4745 14.2095 5.842 13.8419L8.6655 11.0184C9.03306 10.6509 9.03306 10.055 8.6655 9.68744C8.29794 9.31987 7.70206 9.31987 7.3345 9.68744ZM11.0992 11.5698L4.51094 18.1581C4.14338 18.5256 4.14338 19.1215 4.51094 19.4891C4.8785 19.8566 5.47444 19.8566 5.84194 19.4891L12.4302 12.9008C12.7977 12.5332 12.7977 11.9374 12.4302 11.5698C12.0627 11.2023 11.4668 11.2023 11.0992 11.5698ZM31.0588 30.1176C31.5786 30.1176 32 30.539 32 31.0588C32 31.5786 31.5786 32 31.0588 32H0.941188C0.421375 32 0 31.5786 0 31.0588C0 30.539 0.421375 30.1176 0.941188 30.1176H31.0588Z" fill="#1C4AD1"/>
</g>
<defs>
<clipPath id="clip0_659_1924">
<rect width="32" height="32" fill="white"/>
</clipPath>
</defs>
</svg>
