<svg width="32" height="32" viewBox="0 0 32 32" fill="none" xmlns="http://www.w3.org/2000/svg">
<path d="M21.3333 3.00004C21.3333 2.07957 20.5871 1.33337 19.6667 1.33337C18.7462 1.33337 18 2.07957 18 3.00004V5.00004C18 5.92052 18.7462 6.66671 19.6667 6.66671C20.5871 6.66671 21.3333 5.92052 21.3333 5.00004V3.00004Z" fill="#1C4AD1"/>
<path d="M22.6673 3.33337V5.00004C22.6673 5.79569 22.3512 6.55875 21.7886 7.12136C21.226 7.68397 20.463 8.00004 19.6673 8.00004C18.8717 8.00004 18.1086 7.68397 17.546 7.12136C16.9834 6.55875 16.6673 5.79569 16.6673 5.00004V3.33337H10.6673V5.00004C10.6673 5.79569 10.3512 6.55875 9.78864 7.12136C9.22603 7.68397 8.46297 8.00004 7.66732 8.00004C6.87167 8.00004 6.10861 7.68397 5.546 7.12136C4.98339 6.55875 4.66732 5.79569 4.66732 5.00004V3.33337C3.78326 3.33337 2.93542 3.68456 2.3103 4.30968C1.68517 4.93481 1.33398 5.78265 1.33398 6.66671V10H26.0007V6.66671C26.0007 5.78265 25.6495 4.93481 25.0243 4.30968C24.3992 3.68456 23.5514 3.33337 22.6673 3.33337Z" fill="#1C4AD1"/>
<path d="M9.33333 3.00004C9.33333 2.07957 8.58714 1.33337 7.66667 1.33337C6.74619 1.33337 6 2.07957 6 3.00004V5.00004C6 5.92052 6.74619 6.66671 7.66667 6.66671C8.58714 6.66671 9.33333 5.92052 9.33333 5.00004V3.00004Z" fill="#1C4AD1"/>
<path d="M16.0007 24C16.0001 22.6794 16.327 21.3792 16.952 20.2158C17.577 19.0524 18.4806 18.0621 19.582 17.3334H18.6673C18.3137 17.3334 17.9746 17.1929 17.7245 16.9428C17.4745 16.6928 17.334 16.3537 17.334 16V14.6667C17.334 14.3131 17.4745 13.9739 17.7245 13.7239C17.9746 13.4739 18.3137 13.3334 18.6673 13.3334H20.0007C20.3543 13.3334 20.6934 13.4739 20.9435 13.7239C21.1935 13.9739 21.334 14.3131 21.334 14.6667V16C21.3338 16.172 21.3001 16.3423 21.2347 16.5014C22.7597 15.9278 24.4258 15.8441 26.0007 16.262V11.3334H1.33398V24C1.33398 24.4378 1.4202 24.8712 1.58772 25.2757C1.75523 25.6801 2.00077 26.0475 2.3103 26.3571C2.61982 26.6666 2.98729 26.9121 3.39171 27.0796C3.79612 27.2472 4.22958 27.3334 4.66732 27.3334H16.734C16.2511 26.2885 16.0009 25.1511 16.0007 24ZM9.33398 22.6667C9.33398 23.0203 9.19351 23.3595 8.94346 23.6095C8.69341 23.8596 8.35427 24 8.00065 24H6.66732C6.3137 24 5.97456 23.8596 5.72451 23.6095C5.47446 23.3595 5.33398 23.0203 5.33398 22.6667V21.3334C5.33398 20.9798 5.47446 20.6406 5.72451 20.3906C5.97456 20.1405 6.3137 20 6.66732 20H8.00065C8.35427 20 8.69341 20.1405 8.94346 20.3906C9.19351 20.6406 9.33398 20.9798 9.33398 21.3334V22.6667ZM9.33398 16C9.33398 16.3537 9.19351 16.6928 8.94346 16.9428C8.69341 17.1929 8.35427 17.3334 8.00065 17.3334H6.66732C6.3137 17.3334 5.97456 17.1929 5.72451 16.9428C5.47446 16.6928 5.33398 16.3537 5.33398 16V14.6667C5.33398 14.3131 5.47446 13.9739 5.72451 13.7239C5.97456 13.4739 6.3137 13.3334 6.66732 13.3334H8.00065C8.35427 13.3334 8.69341 13.4739 8.94346 13.7239C9.19351 13.9739 9.33398 14.3131 9.33398 14.6667V16ZM15.334 22.6667C15.334 23.0203 15.1935 23.3595 14.9435 23.6095C14.6934 23.8596 14.3543 24 14.0007 24H12.6673C12.3137 24 11.9746 23.8596 11.7245 23.6095C11.4745 23.3595 11.334 23.0203 11.334 22.6667V21.3334C11.334 20.9798 11.4745 20.6406 11.7245 20.3906C11.9746 20.1405 12.3137 20 12.6673 20H14.0007C14.3543 20 14.6934 20.1405 14.9435 20.3906C15.1935 20.6406 15.334 20.9798 15.334 21.3334V22.6667ZM15.334 16C15.334 16.3537 15.1935 16.6928 14.9435 16.9428C14.6934 17.1929 14.3543 17.3334 14.0007 17.3334H12.6673C12.3137 17.3334 11.9746 17.1929 11.7245 16.9428C11.4745 16.6928 11.334 16.3537 11.334 16V14.6667C11.334 14.3131 11.4745 13.9739 11.7245 13.7239C11.9746 13.4739 12.3137 13.3334 12.6673 13.3334H14.0007C14.3543 13.3334 14.6934 13.4739 14.9435 13.7239C15.1935 13.9739 15.334 14.3131 15.334 14.6667V16Z" fill="#1C4AD1"/>
<path d="M24.0007 17.3334C22.6821 17.3334 21.3932 17.7244 20.2969 18.4569C19.2005 19.1895 18.346 20.2306 17.8415 21.4488C17.3369 22.667 17.2049 24.0074 17.4621 25.3006C17.7193 26.5939 18.3543 27.7817 19.2866 28.7141C20.219 29.6464 21.4068 30.2814 22.7001 30.5386C23.9933 30.7958 25.3337 30.6638 26.5519 30.1592C27.7701 29.6547 28.8112 28.8002 29.5438 27.7038C30.2763 26.6075 30.6673 25.3186 30.6673 24C30.6673 23.1246 30.4949 22.2577 30.1599 21.4488C29.8248 20.64 29.3338 19.9051 28.7147 19.286C28.0956 18.6669 27.3607 18.1759 26.5519 17.8408C25.743 17.5058 24.8761 17.3334 24.0007 17.3334ZM26.472 26.4714C26.347 26.5964 26.1774 26.6666 26.0007 26.6666C25.8239 26.6666 25.6543 26.5964 25.5293 26.4714L23.5293 24.4714C23.4043 24.3464 23.334 24.1768 23.334 24V20C23.334 19.8232 23.4042 19.6537 23.5293 19.5286C23.6543 19.4036 23.8238 19.3334 24.0007 19.3334C24.1775 19.3334 24.347 19.4036 24.4721 19.5286C24.5971 19.6537 24.6673 19.8232 24.6673 20V23.724L26.472 25.5287C26.597 25.6537 26.6672 25.8233 26.6672 26C26.6672 26.1768 26.597 26.3464 26.472 26.4714Z" fill="#1C4AD1"/>
</svg>
