<svg width="32" height="32" viewBox="0 0 32 32" fill="none" xmlns="http://www.w3.org/2000/svg">
<path d="M24.9126 12.45L22.9396 13.247C22.6878 13.3495 22.4185 13.4021 22.1466 13.402C21.8568 13.4009 21.5704 13.3404 21.3049 13.2242C21.0395 13.1081 20.8006 12.9387 20.6032 12.7267C20.4057 12.5146 20.2539 12.2643 20.1569 11.9912C20.06 11.7181 20.0201 11.4281 20.0396 11.139L20.1886 9.017L18.8196 7.389C18.526 7.03352 18.3582 6.59083 18.3426 6.13H5.36961C3.01961 6.13 1.09961 8.05 1.09961 10.41V22.31C1.09961 24.67 3.01961 26.58 5.36961 26.58H8.61961L8.54961 28.57C8.54145 28.8521 8.59 29.133 8.69239 29.3961C8.79477 29.6591 8.94892 29.8989 9.14568 30.1012C9.34245 30.3036 9.57783 30.4644 9.83788 30.5741C10.0979 30.6838 10.3774 30.7403 10.6596 30.74C11.0996 30.74 11.5396 30.59 11.9096 30.31L16.8696 26.58H22.5896C24.9396 26.58 26.8596 24.67 26.8596 22.31V13.237L24.9126 12.45ZM14.4766 19.53H9.22761C8.98891 19.53 8.76 19.4352 8.59121 19.2664C8.42243 19.0976 8.32761 18.8687 8.32761 18.63C8.32761 18.3913 8.42243 18.1624 8.59121 17.9936C8.76 17.8248 8.98891 17.73 9.22761 17.73H14.4766C14.7153 17.73 14.9442 17.8248 15.113 17.9936C15.2818 18.1624 15.3766 18.3913 15.3766 18.63C15.3766 18.8687 15.2818 19.0976 15.113 19.2664C14.9442 19.4352 14.7153 19.53 14.4766 19.53ZM19.1296 14.984H9.22961C8.99091 14.984 8.762 14.8892 8.59321 14.7204C8.42443 14.5516 8.32961 14.3227 8.32961 14.084C8.32961 13.8453 8.42443 13.6164 8.59321 13.4476C8.762 13.2788 8.99091 13.184 9.22961 13.184H19.1296C19.3683 13.184 19.5972 13.2788 19.766 13.4476C19.9348 13.6164 20.0296 13.8453 20.0296 14.084C20.0296 14.3227 19.9348 14.5516 19.766 14.7204C19.5972 14.8892 19.3683 14.984 19.1296 14.984Z" fill="#1C4AD1"/>
<path d="M25.4335 2.45404L26.8825 4.77304L29.5355 5.43404C29.9755 5.54404 30.1485 6.07604 29.8575 6.42404L28.0995 8.51804L28.2905 11.245C28.2977 11.3489 28.2784 11.4528 28.2344 11.5471C28.1904 11.6414 28.1231 11.723 28.039 11.7842C27.9548 11.8454 27.8564 11.8842 27.7531 11.8969C27.6498 11.9097 27.545 11.8959 27.4485 11.857L24.9135 10.832L22.3785 11.857C22.282 11.8959 22.1771 11.9097 22.0738 11.8969C21.9706 11.8842 21.8722 11.8454 21.788 11.7842C21.7038 11.723 21.6366 11.6414 21.5926 11.5471C21.5486 11.4528 21.5293 11.3489 21.5365 11.245L21.7275 8.51804L19.9695 6.42404C19.9026 6.34425 19.8572 6.24877 19.8374 6.14658C19.8176 6.04439 19.8241 5.93884 19.8563 5.83986C19.8885 5.74087 19.9453 5.65169 20.0214 5.58071C20.0976 5.50972 20.1905 5.45925 20.2915 5.43404L22.9445 4.77304L24.3935 2.45404C24.4486 2.3658 24.5252 2.29303 24.6162 2.24257C24.7071 2.19212 24.8095 2.16565 24.9135 2.16565C25.0175 2.16565 25.1198 2.19212 25.2108 2.24257C25.3018 2.29303 25.3784 2.3658 25.4335 2.45404Z" fill="#1C4AD1"/>
</svg>
