<svg width="72" height="72" viewBox="0 0 72 72" fill="none" xmlns="http://www.w3.org/2000/svg">
<g clip-path="url(#clip0_102_2147)">
<path d="M0 36C0 16.1178 16.1178 0 36 0C55.8823 0 72 16.1178 72 36C72 55.8823 55.8823 72 36 72C16.1178 72 0 55.8823 0 36Z" fill="#F2F6FD"/>
<g clip-path="url(#clip1_102_2147)">
<path d="M41.6665 18.9995H40.25V26.0843H37.4165V18.9995H34.5831V26.0843H31.75V18.9995H21.8335C21.082 18.9995 20.3613 19.298 19.8299 19.8294C19.2985 20.3608 19 21.0815 19 21.833L19.0004 30.333C19.0004 31.0845 19.299 31.8052 19.8303 32.3366C20.3617 32.8679 21.0824 33.1665 21.8339 33.1665H41.6665C42.418 33.1665 43.1387 32.8679 43.6701 32.3366C44.2015 31.8052 44.5 31.0845 44.5 30.333V21.833C44.4999 21.0815 44.2013 20.3609 43.67 19.8295C43.1386 19.2982 42.418 18.9996 41.6665 18.9995ZM25.375 28.2076C24.202 28.2076 23.25 27.2556 23.25 26.0826C23.25 24.9096 24.202 23.9576 25.375 23.9576C26.548 23.9576 27.5 24.9096 27.5 26.0826C27.5 27.2556 26.548 28.2076 25.375 28.2076ZM53 24.666H50.1665V22.541L47.3335 21.8326V30.3326L50.1665 29.6245V27.4995H53V24.666ZM31.75 44.4991V41.666H36.3349L39.1679 35.9995H36L34.5835 38.8326H31.75V35.9995H23.25V44.4995L19 47.3326V50.1665C19 50.5385 19.0733 50.907 19.2157 51.2507C19.3581 51.5945 19.5668 51.9068 19.8299 52.1699C20.093 52.433 20.4054 52.6416 20.7492 52.784C21.093 52.9263 21.4614 52.9996 21.8335 52.9995L37.417 53.0012C38.1685 53.0011 38.8892 52.7025 39.4205 52.171C39.9519 51.6396 40.2504 50.9188 40.2504 50.1673V47.3326L31.75 44.4991Z" fill="#1C4AD1"/>
</g>
</g>
<defs>
<clipPath id="clip0_102_2147">
<rect width="72" height="72" fill="white"/>
</clipPath>
<clipPath id="clip1_102_2147">
<rect width="34" height="34" fill="white" transform="translate(19 19)"/>
</clipPath>
</defs>
</svg>
