<svg width="72" height="72" viewBox="0 0 72 72" fill="none" xmlns="http://www.w3.org/2000/svg">
<g clip-path="url(#clip0_102_2156)">
<path d="M0 36C0 16.1178 16.1178 0 36 0C55.8823 0 72 16.1178 72 36C72 55.8823 55.8823 72 36 72C16.1178 72 0 55.8823 0 36Z" fill="#F2F6FD"/>
<g clip-path="url(#clip1_102_2156)">
<path d="M51.6451 32.7225L49.918 30.9985C49.7075 30.7886 49.5405 30.5392 49.4268 30.2645C49.313 29.9898 49.2548 29.6953 49.2553 29.398V27.3783C49.2541 26.1495 48.7655 24.9714 47.8968 24.1023C47.028 23.2333 45.8501 22.7443 44.6213 22.7427H42.6016C42.0024 22.741 41.428 22.5035 41.0026 22.0816L39.2771 20.3545C38.4072 19.4868 37.2287 18.9995 36.0001 18.9995C34.7714 18.9995 33.5929 19.4868 32.723 20.3545L30.9991 22.0816C30.5732 22.5039 29.9983 22.7419 29.3985 22.7442H27.3773C26.1485 22.7459 24.9705 23.2349 24.1018 24.1039C23.233 24.973 22.7445 26.1511 22.7432 27.3799V29.398C22.744 29.6952 22.686 29.9896 22.5725 30.2643C22.4591 30.539 22.2924 30.7885 22.0821 30.9985L20.355 32.7225C19.4873 33.5924 19.0001 34.7709 19.0001 35.9995C19.0001 37.2282 19.4873 38.4067 20.355 39.2766L22.0821 41.0005C22.2927 41.2104 22.4596 41.4599 22.5734 41.7346C22.6871 42.0093 22.7454 42.3037 22.7448 42.6011V44.6207C22.746 45.8495 23.2346 47.0276 24.1034 47.8967C24.9721 48.7657 26.15 49.2547 27.3788 49.2564H29.3985C29.9979 49.2584 30.5724 49.4965 30.9975 49.9191L32.723 51.6446C33.5927 52.5126 34.7713 53.0002 36.0001 53.0002C37.2288 53.0002 38.4074 52.5126 39.2771 51.6446L41.001 49.9191C41.4269 49.4967 42.0018 49.2587 42.6016 49.2564H44.6229C45.8517 49.2547 47.0296 48.7657 47.8983 47.8967C48.7671 47.0276 49.2557 45.8495 49.2569 44.6207V42.6011C49.2563 42.3037 49.3146 42.0093 49.4283 41.7346C49.5421 41.4599 49.709 41.2104 49.9196 41.0005L51.6451 39.2766C52.5128 38.4067 53.0001 37.2282 53.0001 35.9995C53.0001 34.7709 52.5128 33.5924 51.6451 32.7225ZM41.5831 33.6714L35.2567 39.9978C35.1468 40.1081 35.0162 40.1957 34.8723 40.2555C34.7285 40.3152 34.5742 40.346 34.4185 40.346C34.2627 40.346 34.1085 40.3152 33.9646 40.2555C33.8208 40.1957 33.6902 40.1081 33.5802 39.9978L30.4171 36.8346C30.2075 36.6097 30.0935 36.3123 30.0989 36.005C30.1043 35.6977 30.2288 35.4045 30.4461 35.1872C30.6635 34.9698 30.9567 34.8454 31.264 34.8399C31.5713 34.8345 31.8687 34.9486 32.0935 35.1581L34.4185 37.4846L39.9066 31.9981C40.1314 31.7886 40.4289 31.6745 40.7362 31.6799C41.0435 31.6853 41.3367 31.8098 41.554 32.0272C41.7713 32.2445 41.8958 32.5377 41.9012 32.845C41.9067 33.1523 41.7926 33.4497 41.5831 33.6746V33.6714Z" fill="#1C4AD1"/>
</g>
</g>
<defs>
<clipPath id="clip0_102_2156">
<rect width="72" height="72" fill="white"/>
</clipPath>
<clipPath id="clip1_102_2156">
<rect width="34" height="34" fill="white" transform="translate(19 19)"/>
</clipPath>
</defs>
</svg>
