<svg width="72" height="72" viewBox="0 0 72 72" fill="none" xmlns="http://www.w3.org/2000/svg">
<g clip-path="url(#clip0_102_2165)">
<path d="M0 36C0 16.1178 16.1178 0 36 0C55.8823 0 72 16.1178 72 36C72 55.8823 55.8823 72 36 72C16.1178 72 0 55.8823 0 36Z" fill="#F2F6FD"/>
<g clip-path="url(#clip1_102_2165)">
<path d="M20.8932 25.556V33.498C20.8811 41.9257 26.1636 49.6127 34.0327 52.6365C35.2991 53.1231 36.7009 53.1231 37.9672 52.6365L39.1452 52.1871C46.4193 49.382 51.1189 42.3508 51.1067 34.2752V25.556C51.1067 24.9003 50.5967 24.3659 49.9409 24.3417C45.5813 24.1716 41.1246 22.4594 36.7164 19.2292C36.2914 18.9256 35.7085 18.9256 35.2835 19.2292C30.8753 22.4594 26.4186 24.1716 22.059 24.3417C21.4032 24.3659 20.8932 24.9003 20.8932 25.556ZM29.2116 35.0038C29.6852 34.5302 30.4624 34.5302 30.936 35.0038L34.3727 38.4405L41.0639 31.7493C41.5375 31.2757 42.3147 31.2757 42.7883 31.7493C43.2619 32.2229 43.2619 32.988 42.7883 33.4616L35.2349 41.0149C35.0042 41.2457 34.6884 41.3671 34.3727 41.3671C34.2128 41.3687 34.0542 41.3384 33.9061 41.2779C33.7581 41.2174 33.6236 41.128 33.5105 41.0149L29.2116 36.7161C29.0991 36.6037 29.0097 36.4703 28.9488 36.3234C28.8879 36.1765 28.8565 36.019 28.8565 35.8599C28.8565 35.7009 28.8879 35.5434 28.9488 35.3965C29.0097 35.2496 29.0991 35.1162 29.2116 35.0038Z" fill="#1C4AD1"/>
</g>
</g>
<defs>
<clipPath id="clip0_102_2165">
<rect width="72" height="72" fill="white"/>
</clipPath>
<clipPath id="clip1_102_2165">
<rect width="34" height="34" fill="white" transform="translate(19 19)"/>
</clipPath>
</defs>
</svg>
