<svg width="72" height="72" viewBox="0 0 72 72" fill="none" xmlns="http://www.w3.org/2000/svg">
<g clip-path="url(#clip0_102_2138)">
<path d="M0 36C0 16.1178 16.1178 0 36 0C55.8823 0 72 16.1178 72 36C72 55.8823 55.8823 72 36 72C16.1178 72 0 55.8823 0 36Z" fill="#F2F6FD"/>
<g clip-path="url(#clip1_102_2138)">
<path d="M44.8491 41.4917C43.7383 40.395 42.3516 40.395 41.2479 41.4917C40.406 42.3265 39.564 43.1614 38.7362 44.0104C38.5098 44.2439 38.3188 44.2934 38.0429 44.1378C37.4981 43.8406 36.9179 43.6001 36.3944 43.2746C33.9535 41.7393 31.9088 39.7654 30.0976 37.5438C29.199 36.4401 28.3995 35.2585 27.8406 33.9284C27.7274 33.6596 27.7486 33.4827 27.968 33.2634C28.8099 32.4497 29.6306 31.6149 30.4584 30.78C31.6116 29.6197 31.6116 28.2613 30.4513 27.0939C29.7933 26.4288 29.1354 25.7779 28.4774 25.1129C27.7982 24.4337 27.126 23.7474 26.4398 23.0752C25.329 21.9928 23.9422 21.9928 22.8385 23.0823C21.9895 23.9172 21.1759 24.7733 20.3127 25.594C19.5132 26.351 19.11 27.2778 19.0251 28.3603C18.8906 30.122 19.3222 31.7847 19.9307 33.4049C21.1759 36.7584 23.072 39.7371 25.3714 42.468C28.4774 46.1612 32.1847 49.0832 36.5217 51.1916C38.4745 52.1397 40.4979 52.8684 42.6983 52.9887C44.2124 53.0736 45.5283 52.6915 46.5825 51.51C47.3042 50.7034 48.1178 49.9676 48.8819 49.1964C50.0139 48.0503 50.021 46.6636 48.8961 45.5315C47.5518 44.1802 46.2004 42.8359 44.8491 41.4917ZM43.4978 35.8528L46.1085 35.4071C45.6981 33.0087 44.5661 30.8366 42.8469 29.1103C41.0286 27.292 38.7292 26.1458 36.1963 25.7921L35.8284 28.4169C37.7882 28.6929 39.5711 29.5772 40.979 30.9852C42.3092 32.3153 43.1794 33.9992 43.4978 35.8528ZM47.5801 24.5044C44.5661 21.4904 40.7526 19.5872 36.543 19L36.1751 21.6249C39.8117 22.1343 43.1086 23.7828 45.7123 26.3793C48.1815 28.8485 49.8017 31.9686 50.3889 35.4L52.9996 34.9543C52.3133 30.9781 50.4384 27.3698 47.5801 24.5044Z" fill="#1C4AD1"/>
</g>
</g>
<defs>
<clipPath id="clip0_102_2138">
<rect width="72" height="72" fill="white"/>
</clipPath>
<clipPath id="clip1_102_2138">
<rect width="34" height="34" fill="white" transform="translate(19 19)"/>
</clipPath>
</defs>
</svg>
