<svg width="72" height="72" viewBox="0 0 72 72" fill="none" xmlns="http://www.w3.org/2000/svg">
<path d="M0 36C0 16.1178 16.1178 0 36 0C55.8823 0 72 16.1178 72 36C72 55.8823 55.8823 72 36 72C16.1178 72 0 55.8823 0 36Z" fill="#F2F6FD"/>
<path fill-rule="evenodd" clip-rule="evenodd" d="M53 23.3732C53 22.5039 52.6351 21.6675 51.9743 21.0521C51.3269 20.4574 50.4791 20.1288 49.6 20.1319H22.4C21.5081 20.1319 20.6558 20.4662 20.0257 21.0521C19.704 21.3475 19.4469 21.7061 19.2704 22.1055C19.0938 22.5049 19.0018 22.9365 19 23.3732V48.6681C19 49.5373 19.3649 50.3737 20.0257 50.9891C20.6731 51.5838 21.5209 51.9124 22.4 51.9094H49.6C50.4919 51.9094 51.3442 51.5751 51.9743 50.9891C52.296 50.6938 52.5531 50.3352 52.7296 49.9357C52.9062 49.5363 52.9982 49.1047 53 48.6681V23.3732ZM36 42.7985C36 42.4979 35.8806 42.2097 35.6681 41.9971C35.4555 41.7846 35.1672 41.6652 34.8667 41.6652H25.8C25.4994 41.6652 25.2112 41.7846 24.9986 41.9971C24.7861 42.2097 24.6667 42.4979 24.6667 42.7985V45.0652C24.6667 45.3658 24.7861 45.654 24.9986 45.8666C25.2112 46.0791 25.4994 46.1985 25.8 46.1985H34.8667C35.1672 46.1985 35.4555 46.0791 35.6681 45.8666C35.8806 45.654 36 45.3658 36 45.0652V42.7985ZM47.3333 33.7319C47.3338 33.5829 47.3048 33.4353 47.248 33.2976C47.1912 33.1599 47.1077 33.0348 47.0024 32.9295C46.8971 32.8241 46.7719 32.7407 46.6342 32.6839C46.4965 32.6271 46.349 32.5981 46.2 32.5985H25.8C25.651 32.5981 25.5035 32.6271 25.3658 32.6839C25.2281 32.7407 25.1029 32.8241 24.9976 32.9295C24.8923 33.0348 24.8088 33.1599 24.752 33.2976C24.6952 33.4353 24.6662 33.5829 24.6667 33.7319V35.9985C24.6662 36.1475 24.6952 36.2951 24.752 36.4328C24.8088 36.5705 24.8923 36.6956 24.9976 36.8009C25.1029 36.9062 25.2281 36.9897 25.3658 37.0465C25.5035 37.1033 25.651 37.1323 25.8 37.1319H46.2C46.349 37.1323 46.4965 37.1033 46.6342 37.0465C46.7719 36.9897 46.8971 36.9062 47.0024 36.8009C47.1077 36.6956 47.1912 36.5705 47.248 36.4328C47.3048 36.2951 47.3338 36.1475 47.3333 35.9985V33.7319ZM50.7333 26.8877H21.2667V23.3732C21.2688 23.2481 21.2968 23.1249 21.3489 23.0112C21.4009 22.8975 21.476 22.7958 21.5693 22.7125C21.7891 22.5085 22.0895 22.3985 22.4 22.3985H49.6C49.9105 22.3985 50.2109 22.5085 50.4307 22.7125C50.524 22.7958 50.5991 22.8975 50.6511 23.0112C50.7032 23.1249 50.7312 23.2481 50.7333 23.3732V26.8877ZM42.8 25.7985H43.9333C44.2339 25.7985 44.5222 25.6791 44.7347 25.4666C44.9473 25.254 45.0667 24.9658 45.0667 24.6652C45.0667 24.3646 44.9473 24.0763 44.7347 23.8638C44.5222 23.6513 44.2339 23.5319 43.9333 23.5319H42.8C42.4994 23.5319 42.2112 23.6513 41.9986 23.8638C41.7861 24.0763 41.6667 24.3646 41.6667 24.6652C41.6667 24.9658 41.7861 25.254 41.9986 25.4666C42.2112 25.6791 42.4994 25.7985 42.8 25.7985ZM47.3333 25.7985H48.4667C48.7672 25.7985 49.0555 25.6791 49.2681 25.4666C49.4806 25.254 49.6 24.9658 49.6 24.6652C49.6 24.3646 49.4806 24.0763 49.2681 23.8638C49.0555 23.6513 48.7672 23.5319 48.4667 23.5319H47.3333C47.0328 23.5319 46.7445 23.6513 46.5319 23.8638C46.3194 24.0763 46.2 24.3646 46.2 24.6652C46.2 24.9658 46.3194 25.254 46.5319 25.4666C46.7445 25.6791 47.0328 25.7985 47.3333 25.7985Z" fill="#1C4AD1"/>
</svg>
